<svg xmlns="http://www.w3.org/2000/svg" width="64" height="64" viewBox="0 0 64 64">
  <defs>
    <linearGradient id="latex" x1="0" y1="0" x2="1" y2="1"><stop offset="0" stop-color="#ffffff"/><stop offset=".6" stop-color="#e3e6ea"/><stop offset="1" stop-color="#b7bdc5"/></linearGradient>
    <linearGradient id="grip" x1="0" y1="0" x2="0" y2="1"><stop offset="0" stop-color="#d6dade"/><stop offset="1" stop-color="#bfc4cb"/></linearGradient>
    <linearGradient id="cuff" x1="0" y1="0" x2="0" y2="1"><stop offset="0" stop-color="#5c636b"/><stop offset="1" stop-color="#2a2f35"/></linearGradient>
    <linearGradient id="strap" x1="0" y1="0" x2="0" y2="1"><stop offset="0" stop-color="#6fd44f"/><stop offset="1" stop-color="#2f9420"/></linearGradient>
    <filter id="sh" x="-20%" y="-20%" width="140%" height="140%"><feGaussianBlur stdDeviation="1.2"/></filter>
  </defs>
  <ellipse cx="32" cy="60.5" rx="24" ry="2.4" fill="#000" opacity=".25" filter="url(#sh)"/>
  <g transform="translate(1 11) rotate(-10 16 30)">
    <rect x="28" y="16" width="7" height="16" rx="3.5" transform="rotate(34 28 32)" fill="url(#latex)" stroke="#8d939b" stroke-width=".6"/>
    <rect x="3.0" y="5.0" width="6.4" height="19.0" rx="3.2" fill="url(#latex)" stroke="#8d939b" stroke-width=".6"/><rect x="9.6" y="1.5" width="6.4" height="22.5" rx="3.2" fill="url(#latex)" stroke="#8d939b" stroke-width=".6"/><rect x="16.2" y="2.5" width="6.4" height="21.5" rx="3.2" fill="url(#latex)" stroke="#8d939b" stroke-width=".6"/><rect x="22.8" y="6.5" width="6.4" height="17.5" rx="3.2" fill="url(#latex)" stroke="#8d939b" stroke-width=".6"/>
    <rect x="2.6" y="15.5" width="27" height="23" rx="5" fill="url(#latex)" stroke="#8d939b" stroke-width=".6"/>
    <path d="M9.6 16 V21 M16.2 16 V21.5 M22.8 16 V21" stroke="#9aa0a8" stroke-width=".6" stroke-linecap="round"/>
    <rect x="6" y="22" width="20" height="12" rx="3" fill="url(#grip)" opacity=".9"/>
    <rect x="1.6" y="36" width="29" height="11" rx="2.2" fill="url(#cuff)" stroke="#202428" stroke-width=".6"/>
    <rect x="1.6" y="39" width="29" height="4.6" fill="url(#strap)"/>
    <rect x="1.6" y="36" width="29" height="11" rx="2.2" fill="none" stroke="#202428" stroke-width=".6"/>
  </g>
  <g transform="translate(63 11) scale(-1 1) rotate(-10 16 30)">
    <rect x="28" y="16" width="7" height="16" rx="3.5" transform="rotate(34 28 32)" fill="url(#latex)" stroke="#8d939b" stroke-width=".6"/>
    <rect x="3.0" y="5.0" width="6.4" height="19.0" rx="3.2" fill="url(#latex)" stroke="#8d939b" stroke-width=".6"/><rect x="9.6" y="1.5" width="6.4" height="22.5" rx="3.2" fill="url(#latex)" stroke="#8d939b" stroke-width=".6"/><rect x="16.2" y="2.5" width="6.4" height="21.5" rx="3.2" fill="url(#latex)" stroke="#8d939b" stroke-width=".6"/><rect x="22.8" y="6.5" width="6.4" height="17.5" rx="3.2" fill="url(#latex)" stroke="#8d939b" stroke-width=".6"/>
    <rect x="2.6" y="15.5" width="27" height="23" rx="5" fill="url(#latex)" stroke="#8d939b" stroke-width=".6"/>
    <path d="M9.6 16 V21 M16.2 16 V21.5 M22.8 16 V21" stroke="#9aa0a8" stroke-width=".6" stroke-linecap="round"/>
    <rect x="6" y="22" width="20" height="12" rx="3" fill="url(#grip)" opacity=".9"/>
    <rect x="1.6" y="36" width="29" height="11" rx="2.2" fill="url(#cuff)" stroke="#202428" stroke-width=".6"/>
    <rect x="1.6" y="39" width="29" height="4.6" fill="url(#strap)"/>
    <rect x="1.6" y="36" width="29" height="11" rx="2.2" fill="none" stroke="#202428" stroke-width=".6"/>
  </g>
</svg>
