<svg xmlns="http://www.w3.org/2000/svg" width="64" height="64" viewBox="0 0 64 64">
  <defs>
    <radialGradient id="skin" cx=".4" cy=".4" r=".7"><stop offset="0" stop-color="#f1e1d2"/><stop offset="1" stop-color="#b59a86"/></radialGradient>
    <linearGradient id="hair" x1="0" y1="0" x2="1" y2="1"><stop offset="0" stop-color="#6d7680"/><stop offset="1" stop-color="#1e2328"/></linearGradient>
    <radialGradient id="suit" cx=".4" cy=".2" r=".9"><stop offset="0" stop-color="#7d838b"/><stop offset=".5" stop-color="#3a3f46"/><stop offset="1" stop-color="#16191d"/></radialGradient>
    <linearGradient id="tie" x1="0" y1="0" x2="1" y2="0"><stop offset="0" stop-color="#3a8be0"/><stop offset="1" stop-color="#174f9e"/></linearGradient>
  </defs>
  <path d="M10 64 C10 48 14 40 24 36.5 L30 40 L36 36 C48 38.5 56 46 58 64 Z" fill="url(#suit)"/>
  <path d="M24 36.5 L30 52 L36 36 L33 34 H27 Z" fill="#f4f6f8" stroke="#c8ccd2" stroke-width=".4"/>
  <path d="M28.6 38.6 H31.6 L32.6 41 L31.6 53 L30 55.5 L28.4 53 L27.6 41 Z" fill="url(#tie)"/>
  <path d="M24 36.5 L22 39.5 L28 50 L26.5 42 Z M36 36 L38.5 39 L32.4 50 L34 42 Z" fill="#2a2e34"/>
  <path d="M27 31 C27 34 28.5 36 30.5 36 C32.5 36 34.4 34 34.6 30 Z" fill="#c4ab98"/>
  <ellipse cx="29" cy="20" rx="9.5" ry="12.5" fill="url(#skin)"/>
  <path d="M19.4 16 C19 7 24.5 2.5 31 2.5 C37.5 2.5 41.5 7 41 14 C40.8 19 39.5 24 37.6 28 L37.2 18 C37 14 35 11.5 30.5 11.5 C25.5 11.5 21.5 12.5 19.4 16 Z" fill="url(#hair)"/>
</svg>
