<?xml version="1.0" encoding="UTF-8"?>
<svg xmlns="http://www.w3.org/2000/svg" viewBox="0 0 100 100" width="128" height="128"><defs><clipPath id="kit2dw-b"><path d="M31,7 L18,10 L23,30 L23,94 Q50,97 77,94 L77,30 L82,10 L69,7 Q50,20 31,7 Z"/></clipPath><clipPath id="kit2dw-s"><path d="M18,10 L5,24 Q8,31 13,35 L23,30 Z M82,10 L95,24 Q92,31 87,35 L77,30 Z"/></clipPath><clipPath id="kit2dw-a"><path d="M31,7 L18,10 L23,30 L23,94 Q50,97 77,94 L77,30 L82,10 L69,7 Q50,20 31,7 Z M18,10 L5,24 Q8,31 13,35 L23,30 Z M82,10 L95,24 Q92,31 87,35 L77,30 Z"/></clipPath><linearGradient id="kit2dw-sh" gradientUnits="userSpaceOnUse" x1="4" y1="0" x2="96" y2="0"><stop offset="0" stop-color="#000" stop-opacity="0.35"/><stop offset=".28" stop-color="#000" stop-opacity="0"/><stop offset=".5" stop-color="#fff" stop-opacity="0.14"/><stop offset=".72" stop-color="#000" stop-opacity="0"/><stop offset="1" stop-color="#000" stop-opacity="0.35"/></linearGradient></defs><path d="M31,7 Q50,10.5 69,7 Q50,20 31,7 Z" fill="#df3416"/><path d="M31,7 Q50,10.5 69,7 Q50,20 31,7 Z" fill="#000" fill-opacity=".32"/><path d="M18,10 L5,24 Q8,31 13,35 L23,30 Z M82,10 L95,24 Q92,31 87,35 L77,30 Z" fill="#df3416"/><path d="M31,7 L18,10 L23,30 L23,94 Q50,97 77,94 L77,30 L82,10 L69,7 Q50,20 31,7 Z" fill="#df3416"/><g clip-path="url(#kit2dw-b)"><rect x="-10" y="28.5" width="120" height="15" fill="#97230f"/></g><path d="M69,7 Q50,20 31,7" fill="none" stroke="#df3416" stroke-width="2.6" stroke-linejoin="round"/><path d="M31,7 Q50,10.5 69,7" fill="none" stroke="#df3416" stroke-width="1.2"/><rect x="0" y="0" width="100" height="100" fill="url(#kit2dw-sh)" clip-path="url(#kit2dw-a)"/><path d="M31,7 L18,10 L23,30 L23,94 Q50,97 77,94 L77,30 L82,10 L69,7 Q50,20 31,7 Z M18,10 L5,24 Q8,31 13,35 L23,30 Z M82,10 L95,24 Q92,31 87,35 L77,30 Z" fill="none" stroke="#df3416" stroke-width="0.1" stroke-linejoin="round"/></svg>
